<svg xmlns:xlink="http://www.w3.org/1999/xlink" xmlns="http://www.w3.org/2000/svg" class="sc-bdvvtL daxvMa icon icon-logo-fa sc-ikJyIC kjwuiE" width="90"  height="31.89" ><defs><symbol id="si_logo-fa" viewBox="0 0 90 31.89"><g transform="translate(-352.78 -155.363)"><path fill="#1E1B1C" d="M371.73,171.979c0,2.534-2.8,2.152-2.8,2.152h-11.104c-1.736,0-2.133-1.368-2.133-2.614v-1.84l-2.913,2.334v0.65c0,3.16,1.578,4.3,5.1,4.3h12.273c2.371,0,4.485-1.62,4.485-3.939v-6.061l-2.908,2.745V171.979z"></path><path fill="#1E1B1C" d="M375.954,176.945h2.95v-13.592l-2.95,2.777V176.945z"></path><path fill="#1E1B1C" d="M382.218,175.26c0.161,1.441-0.877,2.739-2.317,2.9c-0.213,0.024-0.429,0.021-0.642-0.007l1.9,2.851c1.078,0,4.023-0.77,4.023-5.993v-8.307l-2.964,2.969V175.26z"></path><path fill="#1E1B1C" d="M389.966,176.945h4.845c1.12,0.058,2.202-0.421,2.913-1.288c0.629-0.794,0.951-1.788,0.905-2.8v-5.458l-2.954,2.739v1.9c0,1.379-0.498,2.068-1.494,2.068h-4.854c0,0,0.033-1.4,0.033-2.194v-8.774l-2.955,2.777v7.552C386.405,175.786,387.592,176.945,389.966,176.945z"></path><path fill="#1E1B1C" d="M399.843,176.944h2.955v-13.746l-2.955,2.618V176.944z"></path><path fill="#1E1B1C" d="M401.205,159.236c-4.373,0-5.531,2.945-5.531,4.023l2.941,1.867c0-1.942,0.49-2.913,2.334-2.913h2.9l2.966-2.963L401.205,159.236z"></path><path fill="#1E1B1C" d="M362.782,166.708h-7.113v2.95h9.89L362.782,166.708z"></path><path fill="#1E1B1C" d="M395.436,181.869l2.479-2.334c-0.028-0.037-0.047-0.075-0.075-0.107c-0.71-0.869-1.792-1.349-2.913-1.293h-8.121l3,2.8h4.151c0.619,0.037,1.177,0.387,1.48,0.929L395.436,181.869z"></path><path fill="#1E1B1C" d="M391.959,181.406h1.867c0.521,0.032,0.991,0.32,1.256,0.77l-1.123,1.148L391.959,181.406z"></path><path fill="#1E1B1C" d="M424.674,156.309l-2.94-0.779c-2.636-0.7-5.34,0.869-6.04,3.505l-0.733,2.768C417.38,158.8,420.854,156.835,424.674,156.309z"></path><path fill="#1E1B1C" d="M411.796,173.719l-0.718,2.707c-0.7,2.636,0.869,5.34,3.505,6.04l2.8,0.747C414.394,180.863,412.399,177.473,411.796,173.719z"></path><path fill="#1E1B1C" d="M439.13,160.145l-3.165-0.835c3.206,2.466,5.291,6.114,5.788,10.129l0.863-3.267C443.309,163.546,441.752,160.854,439.13,160.145z"></path><path fill="#1E1B1C" d="M428.963,186.289l3.011,0.8c2.636,0.699,5.34-0.871,6.039-3.507c0,0,0,0,0,0l0.85-3.193C436.47,183.585,432.912,185.705,428.963,186.289z"></path><path fill="#ED145B" d="M426.847,157.554c-7.639-0.002-13.832,6.19-13.834,13.829c0,0.002,0,0.003,0,0.004c0.001,7.639,6.193,13.832,13.832,13.831c0.001,0,0.001,0,0.002,0c7.638-0.001,13.829-6.193,13.83-13.831C440.677,163.748,434.486,157.555,426.847,157.554L426.847,157.554 M419.014,164.455c0.414-2.141,2.484-3.543,4.626-3.131c2.143,0.413,3.545,2.485,3.133,4.628c-0.413,2.143-2.485,3.545-4.628,3.133c-2.143-0.413-3.545-2.485-3.133-4.628M424.76,176.409c-0.412,2.143-2.484,3.546-4.627,3.133h-0.001c-2.143-0.413-3.545-2.485-3.133-4.628c0.413-2.143,2.485-3.545,4.628-3.133C423.769,172.195,425.172,174.267,424.76,176.409 M426.438,173.211c-0.953-0.184-1.576-1.104-1.393-2.057c0.184-0.953,1.104-1.576,2.057-1.393c0.953,0.184,1.576,1.104,1.393,2.057C428.311,172.771,427.391,173.394,426.438,173.211 M434.677,178.319c-0.415,2.142-2.486,3.543-4.628,3.13c-2.143-0.413-3.545-2.485-3.133-4.628c0.413-2.143,2.485-3.545,4.628-3.133c2.143,0.413,3.545,2.485,3.133,4.628M432.062,170.993c-2.144-0.413-3.546-2.485-3.133-4.629l0,0c0.413-2.143,2.485-3.545,4.628-3.133c2.144,0.413,3.546,2.485,3.133,4.629l0,0C436.278,170.003,434.206,171.406,432.062,170.993C432.063,170.993,432.062,170.993,432.062,170.993"></path></g></symbol></defs><use xlink:href="#si_logo-fa"></use></svg>