<svg xmlns:xlink="http://www.w3.org/1999/xlink" xmlns="http://www.w3.org/2000/svg" class="sc-bdvvtL daxvMa icon icon-aparat-kids" width="22.245"  height="21.93" ><defs><symbol id="si_aparat-kids" viewBox="0 0 22.245 21.93"><g transform="translate(0 0)"><path d="M36.787.1a1.982,1.982,0,0,1,.761-.116,4.42,4.42,0,0,1,.993.058c.273.091.554.141.827.215.323.108.67.165.993.265.116.041.24.066.364.1a.35.35,0,0,0-.058.041,9.166,9.166,0,0,0-1.042.182c-.29.091-.587.149-.877.256-.223.108-.48.149-.695.273-.157.083-.331.132-.488.223-.182.108-.389.174-.571.29A8.725,8.725,0,0,0,35.5,2.9,8.8,8.8,0,0,0,34.289,4.04c-.091.124-.207.232-.3.356a.367.367,0,0,1-.091.066A2.918,2.918,0,0,1,34.016,4c.116-.323.165-.662.273-.984A6.522,6.522,0,0,1,34.52,2.2a2.093,2.093,0,0,1,.232-.5A3.311,3.311,0,0,1,36.266.326,1.531,1.531,0,0,1,36.787.1Z" transform="translate(-31.069 0.015)"></path><path d="M210.5,32.4a3.165,3.165,0,0,1,.48.132c.207.058.422.1.629.157.521.157,1.067.248,1.58.447a4,4,0,0,1,.711.4,2.768,2.768,0,0,1,.562.513,3.423,3.423,0,0,1,.744,1.39,3.159,3.159,0,0,1,.1.546v.612a3.406,3.406,0,0,1-.108.579c-.1.314-.157.637-.256.943-.083.29-.141.587-.24.877a1.6,1.6,0,0,1-.141.438,9.448,9.448,0,0,0-.165-.968c-.083-.29-.132-.579-.223-.869a7.138,7.138,0,0,0-.256-.7c-.107-.215-.174-.447-.289-.662A10.41,10.41,0,0,0,212.179,34c-.116-.132-.215-.273-.339-.4a8.829,8.829,0,0,0-.86-.811A1.708,1.708,0,0,1,210.5,32.4Z" transform="translate(-193.061 -29.719)"></path><path d="M.306,152.2a.133.133,0,0,1,.05.108c.033.207.066.405.116.6.1.3.141.62.256.91.05.132.091.265.141.4.058.165.149.331.207.5.083.232.215.43.314.653.2.339.38.687.612,1.009a9.2,9.2,0,0,0,1.009,1.257A9.909,9.909,0,0,0,4.2,158.718l.05.05a4.879,4.879,0,0,1-.761-.19c-.273-.074-.554-.124-.827-.215-.223-.066-.455-.1-.678-.182a3.741,3.741,0,0,1-.711-.339,2.374,2.374,0,0,1-.6-.48A3.318,3.318,0,0,1-.05,156.3a2.153,2.153,0,0,1-.174-.455,2.475,2.475,0,0,1-.1-.695,4.344,4.344,0,0,1,.033-.8q.05-.261.124-.521c.025-.165.116-.314.149-.48C.082,152.977.223,152.6.306,152.2Z" transform="translate(0.325 -139.609)"></path><path d="M158.357,207.864c.033-.033.05-.083.108-.074-.041.1-.066.207-.1.314-.1.29-.141.6-.24.885-.083.289-.141.587-.24.877a3.291,3.291,0,0,1-.72,1.464,3.425,3.425,0,0,1-2.448,1.2,4.211,4.211,0,0,1-.852-.05c-.438-.074-.86-.232-1.29-.323-.256-.058-.5-.149-.761-.2a.788.788,0,0,1-.314-.108,5.007,5.007,0,0,0,.6-.107c.306-.066.62-.124.918-.215.207-.083.43-.132.645-.215.273-.124.562-.223.827-.364.265-.1.5-.256.761-.381a8.564,8.564,0,0,0,1.3-.885,7.784,7.784,0,0,0,.687-.587A12.188,12.188,0,0,0,158.357,207.864Z" transform="translate(-138.941 -190.6)"></path><g transform="translate(1.522 1.451)"><path d="M25.012,17.893a9.856,9.856,0,0,1,4.227-.248,9.654,9.654,0,0,1,5.36,2.779A9.436,9.436,0,0,1,36.717,30.3a9.641,9.641,0,0,1-6.923,6.014,17.886,17.886,0,0,0,1.77-4.93,8.449,8.449,0,0,0,.1-2.283,9.363,9.363,0,0,0-.521-2.225,11.372,11.372,0,0,0,1.927-2.209,6.338,6.338,0,0,0,.72-1.464,3.89,3.89,0,0,0,.223-1.472.774.774,0,0,0-.141-.447.487.487,0,0,0-.447-.182.742.742,0,0,0-.612.471,8.289,8.289,0,0,1-1.481,2.407,4.53,4.53,0,0,1-1.8,1.241,2.9,2.9,0,0,0,.976-.844,2.628,2.628,0,0,0-.083-3.16,2.724,2.724,0,0,0-2.9-.935,2.693,2.693,0,0,0-1.944,2.366,2.7,2.7,0,0,0,1,2.291,7.637,7.637,0,0,1-1.39-1.133c-.29-.3-.587-.6-.844-.918-.347-.43-.67-.877-.968-1.332a.556.556,0,0,0-.3-.141.683.683,0,0,0-.6.2,1.057,1.057,0,0,0-.281.951,2.956,2.956,0,0,0,.306.728,9.83,9.83,0,0,0,1.911,2.266,6.092,6.092,0,0,1,.9,1,3.077,3.077,0,0,1,.554,1.423,1.884,1.884,0,0,1-.19,1.042,7.909,7.909,0,0,1-1.729,2.084c-.339.323-.695.629-1,.984a2.248,2.248,0,0,0-.471.769,1.2,1.2,0,0,0,.074.91.74.74,0,0,0,.471.356,2.272,2.272,0,0,0,1-.008,10.317,10.317,0,0,0,1.845-.562,8.013,8.013,0,0,1,1.348-.438.827.827,0,0,1,.695.124.972.972,0,0,1,.3.819,3.758,3.758,0,0,1-.438,1.414,7.673,7.673,0,0,0-.538,1.075,9.628,9.628,0,0,1-7.99-4.947,9.279,9.279,0,0,1-1.133-3.731,9.431,9.431,0,0,1,3.954-8.536A9.228,9.228,0,0,1,25.012,17.893Z" transform="translate(-18.079 -17.522)"></path></g></g></symbol></defs><use xlink:href="#si_aparat-kids" fill="#6F7285"></use></svg>