<svg xmlns="http://www.w3.org/2000/svg"  viewBox="0 0 64 64" width="64px" height="64px"><path d="M 5 4 C 3.347656 4 2 5.347656 2 7 L 2 47 C 2 48.652344 3.347656 50 5 50 L 44.75 50 C 45.4375 50 46.105469 50.238281 46.640625 50.667969 L 60.371094 61.777344 C 60.554688 61.925781 60.773438 62 61 62 C 61.144531 62 61.292969 61.96875 61.433594 61.902344 C 61.777344 61.738281 62 61.386719 62 61 L 62 7 C 62 5.347656 60.652344 4 59 4 Z M 5 6 L 59 6 C 59.550781 6 60 6.449219 60 7 L 60 58.90625 L 47.894531 49.113281 C 47.011719 48.394531 45.894531 48 44.75 48 L 5 48 C 4.449219 48 4 47.550781 4 47 L 4 7 C 4 6.449219 4.449219 6 5 6 Z M 32 10 C 28.691406 10 26 12.691406 26 16 C 26 19.308594 28.691406 22 32 22 C 35.308594 22 38 19.308594 38 16 C 38 12.691406 35.308594 10 32 10 Z M 32 12 C 34.207031 12 36 13.792969 36 16 C 36 18.207031 34.207031 20 32 20 C 29.792969 20 28 18.207031 28 16 C 28 13.792969 29.792969 12 32 12 Z M 20 18 C 17.792969 18 16 19.792969 16 22 C 16 24.207031 17.792969 26 20 26 C 22.207031 26 24 24.207031 24 22 C 24 19.792969 22.207031 18 20 18 Z M 44 18 C 41.792969 18 40 19.792969 40 22 C 40 24.207031 41.792969 26 44 26 C 46.207031 26 48 24.207031 48 22 C 48 19.792969 46.207031 18 44 18 Z M 20 20 C 21.101563 20 22 20.898438 22 22 C 22 23.101563 21.101563 24 20 24 C 18.898438 24 18 23.101563 18 22 C 18 20.898438 18.898438 20 20 20 Z M 44 20 C 45.101563 20 46 20.898438 46 22 C 46 23.101563 45.101563 24 44 24 C 42.898438 24 42 23.101563 42 22 C 42 20.898438 42.898438 20 44 20 Z M 32 24.484375 C 30.480469 24.484375 28.960938 24.652344 27.484375 24.980469 C 25.65625 25.382813 24.160156 26.476563 23.1875 27.933594 C 20.925781 27.503906 18.5625 27.515625 16.3125 28.015625 L 15.917969 28.105469 C 13.609375 28.617188 12 30.625 12 32.984375 L 12 35 C 12 35.554688 12.445313 36 13 36 L 51 36 C 51.554688 36 52 35.554688 52 35 L 52 32.984375 C 52 30.625 50.390625 28.617188 48.085938 28.105469 L 47.6875 28.015625 C 45.441406 27.515625 43.078125 27.503906 40.8125 27.933594 C 39.839844 26.476563 38.347656 25.382813 36.519531 24.980469 C 35.042969 24.652344 33.519531 24.484375 32 24.484375 Z M 32 26.484375 C 33.375 26.484375 34.75 26.632813 36.085938 26.933594 C 38.390625 27.445313 40 29.453125 40 31.8125 L 40 34 L 24 34 L 24 31.8125 C 24 29.453125 25.609375 27.445313 27.914063 26.933594 C 29.25 26.632813 30.625 26.484375 32 26.484375 Z M 19.515625 29.632813 C 20.449219 29.609375 21.386719 29.671875 22.308594 29.8125 C 22.121094 30.449219 22 31.117188 22 31.8125 L 22 34 L 14 34 L 14 32.984375 C 14 31.570313 14.964844 30.363281 16.347656 30.058594 L 16.746094 29.96875 C 17.65625 29.765625 18.585938 29.65625 19.515625 29.632813 Z M 44.484375 29.632813 C 45.414063 29.65625 46.347656 29.765625 47.253906 29.96875 L 47.652344 30.058594 C 49.035156 30.367188 50 31.570313 50 32.984375 L 50 34 L 42 34 L 42 31.8125 C 42 31.117188 41.878906 30.449219 41.691406 29.8125 C 42.613281 29.667969 43.550781 29.609375 44.484375 29.632813 Z M 7 40 C 6.445313 40 6 40.445313 6 41 L 6 43 C 6 43.554688 6.445313 44 7 44 C 7.554688 44 8 43.554688 8 43 L 8 41 C 8 40.445313 7.554688 40 7 40 Z M 12 40 C 11.445313 40 11 40.445313 11 41 L 11 43 C 11 43.554688 11.445313 44 12 44 C 12.554688 44 13 43.554688 13 43 L 13 41 C 13 40.445313 12.554688 40 12 40 Z M 17 40 C 16.445313 40 16 40.445313 16 41 L 16 43 C 16 43.554688 16.445313 44 17 44 C 17.554688 44 18 43.554688 18 43 L 18 41 C 18 40.445313 17.554688 40 17 40 Z M 22 40 C 21.445313 40 21 40.445313 21 41 L 21 43 C 21 43.554688 21.445313 44 22 44 C 22.554688 44 23 43.554688 23 43 L 23 41 C 23 40.445313 22.554688 40 22 40 Z M 27 40 C 26.445313 40 26 40.445313 26 41 L 26 43 C 26 43.554688 26.445313 44 27 44 C 27.554688 44 28 43.554688 28 43 L 28 41 C 28 40.445313 27.554688 40 27 40 Z M 32 40 C 31.445313 40 31 40.445313 31 41 L 31 43 C 31 43.554688 31.445313 44 32 44 C 32.554688 44 33 43.554688 33 43 L 33 41 C 33 40.445313 32.554688 40 32 40 Z M 37 40 C 36.445313 40 36 40.445313 36 41 L 36 43 C 36 43.554688 36.445313 44 37 44 C 37.554688 44 38 43.554688 38 43 L 38 41 C 38 40.445313 37.554688 40 37 40 Z M 42 40 C 41.445313 40 41 40.445313 41 41 L 41 43 C 41 43.554688 41.445313 44 42 44 C 42.554688 44 43 43.554688 43 43 L 43 41 C 43 40.445313 42.554688 40 42 40 Z M 47 40 C 46.445313 40 46 40.445313 46 41 L 46 43 C 46 43.554688 46.445313 44 47 44 C 47.554688 44 48 43.554688 48 43 L 48 41 C 48 40.445313 47.554688 40 47 40 Z M 52 40 C 51.445313 40 51 40.445313 51 41 L 51 43 C 51 43.554688 51.445313 44 52 44 C 52.554688 44 53 43.554688 53 43 L 53 41 C 53 40.445313 52.554688 40 52 40 Z M 57 40 C 56.445313 40 56 40.445313 56 41 L 56 43 C 56 43.554688 56.445313 44 57 44 C 57.554688 44 58 43.554688 58 43 L 58 41 C 58 40.445313 57.554688 40 57 40 Z"/></svg>