<svg xmlns:xlink="http://www.w3.org/1999/xlink" xmlns="http://www.w3.org/2000/svg" class="sc-bdvvtL daxvMa icon icon-live" width="24"  height="24" ><defs><symbol id="si_live" viewBox="0 0 24 24"><path fill="none" d="M0,0H24V24H0Z"></path><path d="M7,7.125V10.2a.125.125,0,0,1-.214.089L3.214,6.714A.125.125,0,0,0,3,6.8V17.2a.125.125,0,0,0,.214.089l3.572-3.572A.125.125,0,0,1,7,13.8v3.072A1.125,1.125,0,0,0,8.125,18H19.875A1.125,1.125,0,0,0,21,16.875V7.125A1.125,1.125,0,0,0,19.875,6H8.125A1.125,1.125,0,0,0,7,7.125ZM18.521,16H9.479A.479.479,0,0,1,9,15.521V8.479A.479.479,0,0,1,9.479,8h9.042A.479.479,0,0,1,19,8.479v7.042A.479.479,0,0,1,18.521,16Z"></path><circle cx="14" cy="12" r="2.25"></circle></symbol></defs><use xlink:href="#si_live" fill="#6F7285"></use></svg>