<svg xmlns:xlink="http://www.w3.org/1999/xlink" xmlns="http://www.w3.org/2000/svg" id="si_cut" viewBox="0 0 21 21" width="21"  height="21" ><path d="M17.5898 1.59003L11.5898 7.59003L13.5898 9.59003L20.5898 2.59003V1.59003H17.5898ZM10.5898 11.09C10.4572 11.09 10.3301 11.0373 10.2363 10.9436C10.1425 10.8498 10.0898 10.7226 10.0898 10.59C10.0898 10.4574 10.1425 10.3302 10.2363 10.2365C10.3301 10.1427 10.4572 10.09 10.5898 10.09C10.7225 10.09 10.8496 10.1427 10.9434 10.2365C11.0372 10.3302 11.0898 10.4574 11.0898 10.59C11.0898 10.7226 11.0372 10.8498 10.9434 10.9436C10.8496 11.0373 10.7225 11.09 10.5898 11.09ZM4.58984 18.59C4.05941 18.59 3.5507 18.3793 3.17563 18.0042C2.80056 17.6292 2.58984 17.1205 2.58984 16.59C2.58984 15.48 3.48984 14.59 4.58984 14.59C5.12028 14.59 5.62898 14.8007 6.00406 15.1758C6.37913 15.5509 6.58984 16.0596 6.58984 16.59C6.58984 17.7 5.68984 18.59 4.58984 18.59ZM4.58984 6.59003C4.05941 6.59003 3.5507 6.37931 3.17563 6.00424C2.80056 5.62917 2.58984 5.12046 2.58984 4.59003C2.58984 3.48003 3.48984 2.59003 4.58984 2.59003C5.12028 2.59003 5.62898 2.80074 6.00406 3.17581C6.37913 3.55089 6.58984 4.05959 6.58984 4.59003C6.58984 5.70003 5.68984 6.59003 4.58984 6.59003ZM8.22984 6.23003C8.45984 5.73003 8.58984 5.18003 8.58984 4.59003C8.58984 3.52916 8.16842 2.51175 7.41827 1.7616C6.66813 1.01145 5.65071 0.590027 4.58984 0.590027C3.52898 0.590027 2.51156 1.01145 1.76142 1.7616C1.01127 2.51175 0.589844 3.52916 0.589844 4.59003C0.589844 5.65089 1.01127 6.66831 1.76142 7.41845C2.51156 8.1686 3.52898 8.59003 4.58984 8.59003C5.17984 8.59003 5.72984 8.46003 6.22984 8.23003L8.58984 10.59L6.22984 12.95C5.72984 12.72 5.17984 12.59 4.58984 12.59C3.52898 12.59 2.51156 13.0115 1.76142 13.7616C1.01127 14.5117 0.589844 15.5292 0.589844 16.59C0.589844 17.6509 1.01127 18.6683 1.76142 19.4185C2.51156 20.1686 3.52898 20.59 4.58984 20.59C5.65071 20.59 6.66813 20.1686 7.41827 19.4185C8.16842 18.6683 8.58984 17.6509 8.58984 16.59C8.58984 16 8.45984 15.45 8.22984 14.95L10.5898 12.59L17.5898 19.59H20.5898V18.59L8.22984 6.23003Z" fill="black"></path></svg>