<svg xmlns:xlink="http://www.w3.org/1999/xlink" xmlns="http://www.w3.org/2000/svg" class="sc-bdvvtL daxvMa icon icon-eye" width="24"  height="24" ><defs><symbol id="si_eye" viewBox="0 0 24 24"><path d="M0,0H24V24H0Z" fill="none"></path><path d="M12,6.5A9.77,9.77,0,0,1,20.82,12,9.822,9.822,0,0,1,3.18,12,9.77,9.77,0,0,1,12,6.5m0-2A11.827,11.827,0,0,0,1,12a11.817,11.817,0,0,0,22,0A11.827,11.827,0,0,0,12,4.5Z"></path><path d="M11,9.056c1.073,0-2.037.871-2.037,1.944s3.11,1.944,2.037,1.944c-.314,0,1.655.138,1.18-.119-.423-.2-3.125-1.066-3.125-1.825,0-.621,1.814-1.45,2.469-1.944.129-.121-.976,0-.524,0M11,7.5A3.5,3.5,0,1,0,14.5,11,3.505,3.505,0,0,0,11,7.5Z" transform="translate(1 1)"></path></symbol></defs><use xlink:href="#si_eye" fill="#484B62"></use></svg>