<svg xmlns:xlink="http://www.w3.org/1999/xlink" xmlns="http://www.w3.org/2000/svg" class="sc-bdvvtL daxvMa icon icon-dashboard" width="24"  height="24" ><defs><symbol id="si_dashboard" viewBox="0 0 24 24"><path d="M0,0H24V24H0Z" fill="none"></path><path d="M19,5V9H4V5H19m0,10v4H4V15H19M20,3H3A1,1,0,0,0,2,4v6a1,1,0,0,0,1,1H20a1,1,0,0,0,1-1V4a1,1,0,0,0-1-1Zm0,10H3a1,1,0,0,0-1,1v6a1,1,0,0,0,1,1H20a1,1,0,0,0,1-1V14a1,1,0,0,0-1-1Z"></path></symbol></defs><use xlink:href="#si_dashboard" fill="#DF0F50"></use></svg>