<svg xmlns:xlink="http://www.w3.org/1999/xlink" xmlns="http://www.w3.org/2000/svg" class="sc-bdvvtL daxvMa icon icon-comments" width="24"  height="24" ><defs><symbol id="si_comments" viewBox="0 0 24 24"><path d="M0,0H24V24H0Z" fill="none"></path><path d="M4,4H20V16H5.17L4,17.17V4H4M4,2A2,2,0,0,0,2.01,4L2,22l4-4H20a2.006,2.006,0,0,0,2-2V4a2.006,2.006,0,0,0-2-2Z"></path><path d="M6,12h8v2H6Z"></path><path d="M6,9H18v2H6Z"></path><path d="M6,6H18V8H6Z"></path></symbol></defs><use xlink:href="#si_comments" fill="#6F7285"></use></svg>