<svg xmlns:xlink="http://www.w3.org/1999/xlink" xmlns="http://www.w3.org/2000/svg" class="sc-bdvvtL daxvMa icon icon-users" width="24"  height="24" ><defs><symbol id="si_users" viewBox="0 0 24 24"><path d="M0,0H24V24H0Z" fill="none"></path><path d="M9,13.75c-2.34,0-7,1.17-7,3.5V19H16V17.25C16,14.92,11.34,13.75,9,13.75ZM4.34,17A9.642,9.642,0,0,1,9,15.75,9.642,9.642,0,0,1,13.66,17Z"></path><path d="M9,12A3.5,3.5,0,1,0,5.5,8.5,3.5,3.5,0,0,0,9,12ZM9,7A1.5,1.5,0,1,1,7.5,8.5,1.5,1.5,0,0,1,9,7Z"></path><path d="M16.04,13.81A4.193,4.193,0,0,1,18,17.25V19h4V17.25C22,15.23,18.5,14.08,16.04,13.81Z"></path><path d="M15,12a3.5,3.5,0,0,0,0-7,3.446,3.446,0,0,0-1.5.35,5.461,5.461,0,0,1,0,6.3A3.446,3.446,0,0,0,15,12Z"></path></symbol></defs><use xlink:href="#si_users" fill="#6F7285"></use></svg>